<svg width="223" height="45" viewBox="0 0 223 45" fill="none" xmlns="http://www.w3.org/2000/svg">
<rect x="0.5" y="0.5" width="222" height="44" stroke="#130D32"/>
<path d="M56.7842 29.057C57.9024 29.057 58.67 28.8859 59.087 28.5437C59.5229 28.1825 59.7409 27.6883 59.7409 27.0609C59.7409 26.6807 59.6746 26.3576 59.5419 26.0914C59.4092 25.8253 59.1344 25.5782 58.7174 25.3501C58.3004 25.1219 57.656 24.8748 56.7842 24.6087L55.0215 24.0384C53.4104 23.5251 52.2448 22.8407 51.5246 21.9853C50.8043 21.1108 50.4442 19.9512 50.4442 18.5065C50.4442 17.518 50.7096 16.615 51.2403 15.7976C51.771 14.9802 52.548 14.3243 53.5715 13.8301C54.614 13.3168 55.8839 13.0602 57.3812 13.0602C58.4426 13.0602 59.4187 13.1362 60.3095 13.2883C61.2003 13.4213 62.1385 13.5924 63.1241 13.8015L62.6692 17.2804C61.5131 17.0142 60.4896 16.8146 59.5988 16.6815C58.7079 16.5295 57.9308 16.4534 57.2675 16.4534C56.2629 16.4534 55.5522 16.615 55.1352 16.9382C54.7372 17.2613 54.5382 17.6796 54.5382 18.1928C54.5382 18.554 54.6045 18.8772 54.7372 19.1623C54.8699 19.4475 55.1352 19.7136 55.5332 19.9607C55.9502 20.2079 56.5662 20.455 57.3812 20.7021L59.2576 21.2724C60.9255 21.7667 62.1101 22.4225 62.8114 23.24C63.5127 24.0574 63.8633 25.2265 63.8633 26.7473C63.8633 27.8308 63.5979 28.8099 63.0672 29.6843C62.5365 30.5398 61.7405 31.2241 60.6791 31.7374C59.6367 32.2316 58.3099 32.4788 56.6989 32.4788C55.6375 32.4788 54.5476 32.3742 53.4294 32.1651C52.3301 31.956 51.136 31.6423 49.8472 31.2241L50.5864 27.7738C51.9321 28.192 53.1072 28.5152 54.1117 28.7433C55.1162 28.9524 56.0071 29.057 56.7842 29.057Z" fill="#FDFDFD"/>
<path d="M72.0017 13.4023V32.0796H67.8793V13.4023H72.0017ZM71.7174 22.7267L77.9436 13.4023H82.7199V13.4594L75.328 23.9243L71.7174 22.7267ZM71.7174 22.7267L75.0722 20.4455L82.8336 32.0225V32.0796H77.8015L71.7174 22.7267Z" fill="#FDFDFD"/>
<path d="M89.8348 13.4023H93.9288V32.0796H89.8348V13.4023ZM86.3379 15.6835V13.4023H97.3688V15.6835L91.9102 16.8241L86.3379 15.6835ZM86.3379 29.7984L91.9102 28.6578L97.3688 29.7984V32.0796H86.3379V29.7984Z" fill="#FDFDFD"/>
<path d="M103.062 13.4023H107.185V32.0796H103.062V13.4023ZM104.313 32.0796V28.6863H116.311V32.0796H104.313Z" fill="#FDFDFD"/>
<path d="M120.526 13.4023H124.648V32.0796H120.526V13.4023ZM121.777 32.0796V28.6863H133.774V32.0796H121.777Z" fill="#FDFDFD"/>
<path d="M144.102 29.057C145.22 29.057 145.988 28.8859 146.405 28.5437C146.841 28.1825 147.059 27.6883 147.059 27.0609C147.059 26.6807 146.992 26.3576 146.859 26.0914C146.727 25.8253 146.452 25.5782 146.035 25.3501C145.618 25.1219 144.974 24.8748 144.102 24.6087L142.339 24.0384C140.728 23.5251 139.562 22.8407 138.842 21.9853C138.122 21.1108 137.762 19.9512 137.762 18.5065C137.762 17.518 138.027 16.615 138.558 15.7976C139.089 14.9802 139.866 14.3243 140.889 13.8301C141.932 13.3168 143.201 13.0602 144.699 13.0602C145.76 13.0602 146.736 13.1362 147.627 13.2883C148.518 13.4213 149.456 13.5924 150.442 13.8015L149.987 17.2804C148.831 17.0142 147.807 16.8146 146.916 16.6815C146.026 16.5295 145.248 16.4534 144.585 16.4534C143.581 16.4534 142.87 16.615 142.453 16.9382C142.055 17.2613 141.856 17.6796 141.856 18.1928C141.856 18.554 141.922 18.8772 142.055 19.1623C142.187 19.4475 142.453 19.7136 142.851 19.9607C143.268 20.2079 143.884 20.455 144.699 20.7021L146.575 21.2724C148.243 21.7667 149.428 22.4225 150.129 23.24C150.83 24.0574 151.181 25.2265 151.181 26.7473C151.181 27.8308 150.916 28.8099 150.385 29.6843C149.854 30.5398 149.058 31.2241 147.997 31.7374C146.954 32.2316 145.628 32.4788 144.016 32.4788C142.955 32.4788 141.865 32.3742 140.747 32.1651C139.648 31.956 138.454 31.6423 137.165 31.2241L137.904 27.7738C139.25 28.192 140.425 28.5152 141.429 28.7433C142.434 28.9524 143.325 29.057 144.102 29.057Z" fill="#FDFDFD"/>
<path d="M158.125 13.4023H161.764C164.247 13.4023 166.133 13.9631 167.422 15.0847C168.711 16.2063 169.355 17.7271 169.355 19.6471C169.355 21.7762 168.673 23.373 167.308 24.4376C165.944 25.4831 164.048 26.0059 161.622 26.0059H158.125V22.6697H161.906C163.006 22.6697 163.821 22.413 164.351 21.8998C164.901 21.3675 165.176 20.6356 165.176 19.7041C165.176 18.7726 164.92 18.0598 164.408 17.5655C163.897 17.0712 163.11 16.8241 162.049 16.8241H158.125V13.4023ZM155.197 13.4023H159.319V32.0796H155.197V13.4023Z" fill="#FDFDFD"/>
<path d="M175.447 28.4867L176.243 25.2645H181.559L182.412 28.4867H175.447ZM175.304 32.0796H171.239L176.584 13.4023H179.74L179.455 16.3108L176.783 26.6903H176.84L175.304 32.0796ZM187.103 32.0796H182.81L181.303 26.8328L181.36 26.8043L178.688 16.3679L178.773 13.4023H181.701L187.103 32.0796Z" fill="#FDFDFD"/>
<path d="M197.431 32.5073C194.967 32.5073 192.995 31.6899 191.517 30.055C190.058 28.4011 189.328 25.9774 189.328 22.7837C189.328 20.9017 189.688 19.2194 190.408 17.7366C191.147 16.2538 192.18 15.0942 193.507 14.2578C194.834 13.4023 196.369 12.9746 198.113 12.9746C198.795 12.9746 199.449 13.0506 200.075 13.2027C200.719 13.3548 201.373 13.6019 202.036 13.9441C202.719 14.2673 203.439 14.7045 204.197 15.2558L202.406 18.1358C201.723 17.6415 201.136 17.2708 200.643 17.0237C200.169 16.7766 199.733 16.615 199.335 16.539C198.956 16.4439 198.577 16.3964 198.198 16.3964C197.383 16.3964 196.616 16.634 195.895 17.1093C195.175 17.5655 194.597 18.2594 194.161 19.1908C193.725 20.1223 193.507 21.3009 193.507 22.7267C193.507 24.2665 193.716 25.5021 194.133 26.4336C194.55 27.3651 195.099 28.04 195.782 28.4582C196.483 28.8764 197.222 29.0855 197.999 29.0855C198.549 29.0855 199.193 28.9524 199.932 28.6863C200.691 28.4011 201.581 27.9259 202.605 27.2606L204.424 30.112C203.154 30.9675 201.923 31.5853 200.728 31.9655C199.553 32.3267 198.454 32.5073 197.431 32.5073Z" fill="#FDFDFD"/>
<path d="M207.843 13.4023H211.966V32.0796H207.843V13.4023ZM208.156 16.8241V13.4023H220.751V16.8241H208.156ZM208.156 32.0796V28.6578H220.779V32.0796H208.156ZM208.156 24.3806V20.9588H219.841V24.3806H208.156Z" fill="#FDFDFD"/>
<path d="M36.2302 9.56217C36.442 9.57571 36.6023 9.7588 36.5879 9.97046L36.3988 12.7388C36.3845 12.9482 36.2042 13.1071 35.9947 13.095L24.5794 12.4375C24.1829 12.4147 24.0181 12.9361 24.3556 13.1454L43.1789 24.8175C43.8824 25.2537 43.7382 26.3168 42.9439 26.5499L6.6942 37.1868C6.5714 37.2228 6.43872 37.1951 6.34058 37.113L0.60476 32.313C0.359567 32.1078 0.458889 31.7103 0.771775 31.6445L32.431 24.9906C32.7667 24.92 32.8474 24.4776 32.5582 24.293L9.63109 9.65932C8.79704 9.12698 9.21992 7.83357 10.2074 7.89677L36.2302 9.56217Z" fill="#2D58FF"/>
</svg>
